<svg width="43" height="42" viewBox="0 0 43 42" fill="none" xmlns="http://www.w3.org/2000/svg">
<rect x="0.151367" width="42" height="42" rx="21" fill="white"/>
<rect x="0.651367" y="0.5" width="41" height="41" rx="20.5" stroke="#1A1A1A" stroke-opacity="0.1"/>
<path d="M13.9952 20.954C13.9255 19.0503 14.6136 17.1966 15.9084 15.7993C17.2033 14.4021 18.9994 13.5752 20.9029 13.5001C22.8064 13.5752 24.6024 14.4021 25.8973 15.7993C27.1922 17.1966 27.8802 19.0503 27.8105 20.954C27.8105 22.6003 29.5993 24.2041 29.6518 25.8541C29.6518 25.8774 29.6518 25.9008 29.6518 25.9241C29.6704 26.4318 29.4869 26.9262 29.1415 27.2988C28.7961 27.6714 28.317 27.8918 27.8093 27.9117H23.8192C23.8229 28.7217 23.5176 29.5027 22.9654 30.0955C22.7028 30.3806 22.384 30.6082 22.029 30.7639C21.6739 30.9196 21.2905 31 20.9029 31C20.5152 31 20.1318 30.9196 19.7768 30.7639C19.4218 30.6082 19.1029 30.3806 18.8403 30.0955C18.2882 29.5027 17.9828 28.7217 17.9865 27.9117H13.9952C13.4875 27.8918 13.0084 27.6714 12.663 27.2988C12.3176 26.9262 12.1341 26.4318 12.1527 25.9241C12.1527 25.9008 12.1527 25.8774 12.1527 25.8541C12.2064 24.2091 13.9952 22.6015 13.9952 20.954Z" stroke="#1A1A1A" stroke-width="1.5" stroke-linecap="round" stroke-linejoin="round"/>
<path d="M17.9863 27.9117H23.819M22.1527 11H19.6526" stroke="#1A1A1A" stroke-width="1.5" stroke-linecap="round" stroke-linejoin="round"/>

</svg>
