<svg width="40" height="40" viewBox="0 0 40 40" fill="none" xmlns="http://www.w3.org/2000/svg">
<path d="M12.3964 25.0963C12.4347 24.7517 12.4538 24.5794 12.5059 24.4184C12.5522 24.2755 12.6175 24.1396 12.7002 24.0142C12.7934 23.8729 12.916 23.7503 13.1611 23.5052L24.1664 12.4999C25.0868 11.5795 26.5792 11.5795 27.4997 12.4999C28.4202 13.4204 28.4202 14.9128 27.4997 15.8333L16.4944 26.8385C16.2493 27.0836 16.1267 27.2062 15.9854 27.2994C15.86 27.3821 15.7241 27.4474 15.5812 27.4937C15.4202 27.5458 15.2479 27.5649 14.9033 27.6032L12.083 27.9166L12.3964 25.0963Z" stroke="#777B74" stroke-width="1.66667" stroke-linecap="round" stroke-linejoin="round"/>
</svg>
