<svg width="20" height="20" viewBox="0 0 20 20" fill="none" xmlns="http://www.w3.org/2000/svg">
<path d="M12.3201 19.7752C11.9868 19.8585 11.6951 19.7918 11.4451 19.5752C11.1951 19.3585 11.0701 19.0585 11.0701 18.6752C11.0701 18.4918 11.1411 18.3208 11.2831 18.1622C11.4245 18.0042 11.5868 17.9002 11.7701 17.8502C12.2368 17.7335 12.6911 17.5875 13.1331 17.4122C13.5745 17.2375 13.9951 17.0168 14.3951 16.7502C14.5785 16.6335 14.7701 16.5835 14.9701 16.6002C15.1701 16.6168 15.3368 16.6918 15.4701 16.8252C15.7368 17.0918 15.8578 17.3958 15.8331 17.7372C15.8078 18.0792 15.6451 18.3418 15.3451 18.5252C14.8785 18.8085 14.3911 19.0545 13.8831 19.2632C13.3745 19.4712 12.8535 19.6418 12.3201 19.7752ZM16.9201 15.4002C16.7868 15.2668 16.7075 15.0962 16.6821 14.8882C16.6575 14.6795 16.7035 14.4918 16.8201 14.3252C17.0701 13.9252 17.2868 13.5042 17.4701 13.0622C17.6535 12.6208 17.7951 12.1668 17.8951 11.7002C17.9451 11.5002 18.0535 11.3335 18.2201 11.2002C18.3868 11.0668 18.5701 11.0002 18.7701 11.0002C19.1368 11.0002 19.4245 11.1335 19.6331 11.4002C19.8411 11.6668 19.9035 11.9668 19.8201 12.3002C19.6868 12.8335 19.5161 13.3502 19.3081 13.8502C19.0995 14.3502 18.8535 14.8335 18.5701 15.3002C18.3868 15.5835 18.1328 15.7375 17.8081 15.7622C17.4828 15.7875 17.1868 15.6668 16.9201 15.4002ZM18.7451 9.00015C18.5618 9.00015 18.3868 8.93349 18.2201 8.80015C18.0535 8.66682 17.9451 8.50015 17.8951 8.30015C17.7951 7.83349 17.6535 7.37915 17.4701 6.93715C17.2868 6.49582 17.0701 6.07515 16.8201 5.67515C16.7035 5.50849 16.6575 5.31682 16.6821 5.10015C16.7075 4.88348 16.7868 4.70849 16.9201 4.57515C17.1701 4.30849 17.4618 4.19182 17.7951 4.22515C18.1285 4.25848 18.3868 4.41682 18.5701 4.70015C18.8701 5.16682 19.1245 5.65015 19.3331 6.15015C19.5411 6.65015 19.7118 7.16682 19.8451 7.70015C19.9285 8.03349 19.8618 8.33349 19.6451 8.60015C19.4284 8.86682 19.1285 9.00015 18.7451 9.00015ZM7.82012 19.7502C5.58678 19.2168 3.74512 18.0502 2.29512 16.2502C0.845117 14.4502 0.120117 12.3668 0.120117 10.0002C0.120117 7.63349 0.845117 5.55015 2.29512 3.75015C3.74512 1.95015 5.59512 0.783485 7.84512 0.250152C8.17845 0.166818 8.47012 0.233485 8.72012 0.450152C8.97012 0.666818 9.09512 0.958485 9.09512 1.32515C9.09512 1.50849 9.02445 1.67915 8.88312 1.83715C8.74112 1.99582 8.57845 2.10015 8.39512 2.15015C6.56178 2.56682 5.05778 3.50015 3.88312 4.95015C2.70778 6.40015 2.12012 8.08349 2.12012 10.0002C2.12012 11.9168 2.70778 13.6002 3.88312 15.0502C5.05778 16.5002 6.55345 17.4335 8.37012 17.8502C8.55345 17.9002 8.71612 18.0042 8.85812 18.1622C8.99945 18.3208 9.07012 18.5002 9.07012 18.7002C9.07012 19.0668 8.94512 19.3545 8.69512 19.5632C8.44512 19.7712 8.15345 19.8335 7.82012 19.7502ZM14.4451 3.27515C14.0285 3.00849 13.6034 2.78349 13.1701 2.60015C12.7368 2.41682 12.2785 2.26682 11.7951 2.15015C11.6118 2.10015 11.4495 1.99582 11.3081 1.83715C11.1661 1.67915 11.0951 1.50015 11.0951 1.30015C11.0951 0.933485 11.2201 0.641819 11.4701 0.425152C11.7201 0.208485 12.0118 0.141819 12.3451 0.225152C12.8785 0.358485 13.3991 0.529152 13.9071 0.737152C14.4158 0.945818 14.9035 1.19182 15.3701 1.47515C15.6701 1.65849 15.8368 1.92082 15.8701 2.26215C15.9035 2.60415 15.7868 2.90849 15.5201 3.17515C15.3868 3.30849 15.2161 3.38349 15.0081 3.40015C14.7995 3.41682 14.6118 3.37515 14.4451 3.27515ZM10.0701 14.6002C9.93678 14.6002 9.81178 14.5752 9.69512 14.5252C9.57845 14.4752 9.47012 14.4085 9.37012 14.3252L5.74512 10.6752C5.56178 10.4918 5.47012 10.2585 5.47012 9.97515C5.47012 9.69182 5.57012 9.45015 5.77012 9.25015C5.95345 9.06682 6.18678 8.97515 6.47012 8.97515C6.75345 8.97515 6.99512 9.06682 7.19512 9.25015L9.07012 11.1502V6.02515C9.07012 5.74182 9.16612 5.50415 9.35812 5.31215C9.54945 5.12082 9.78678 5.02515 10.0701 5.02515C10.3535 5.02515 10.5911 5.12082 10.7831 5.31215C10.9745 5.50415 11.0701 5.74182 11.0701 6.02515V11.1502L12.9201 9.30015C13.1201 9.10015 13.3618 9.00015 13.6451 9.00015C13.9285 9.00015 14.1701 9.10015 14.3701 9.30015C14.5701 9.50015 14.6658 9.74182 14.6571 10.0252C14.6491 10.3085 14.5451 10.5502 14.3451 10.7502L10.7701 14.3252C10.6868 14.4085 10.5828 14.4752 10.4581 14.5252C10.3328 14.5752 10.2035 14.6002 10.0701 14.6002Z" fill="#AAADA7"/>
</svg>
