<svg width="16" height="16" viewBox="0 0 16 16" fill="none" xmlns="http://www.w3.org/2000/svg">
<path d="M9.3336 8.66669V12.6667C9.3336 12.8556 9.26982 13.0138 9.14226 13.1414C9.01426 13.2694 8.85582 13.3334 8.66693 13.3334H7.3336C7.14471 13.3334 6.98649 13.2694 6.85893 13.1414C6.73093 13.0138 6.66693 12.8556 6.66693 12.6667V8.66669L2.80026 3.73335C2.6336 3.51113 2.60871 3.2778 2.7256 3.03335C2.84204 2.78891 3.04471 2.66669 3.3336 2.66669H12.6669C12.9558 2.66669 13.1587 2.78891 13.2756 3.03335C13.392 3.2778 13.3669 3.51113 13.2003 3.73335L9.3336 8.66669ZM8.00026 8.20002L11.3003 4.00002H4.70026L8.00026 8.20002Z" fill="#777B74"/>
</svg>
