<svg width="20" height="20" viewBox="0 0 20 20" fill="none" xmlns="http://www.w3.org/2000/svg">
<path d="M7.67988 0.224847C8.01322 0.141513 8.30488 0.20818 8.55488 0.424848C8.80488 0.641515 8.92988 0.941514 8.92988 1.32485C8.92988 1.50818 8.85888 1.67918 8.71688 1.83785C8.57555 1.99585 8.41322 2.09985 8.22988 2.14985C7.76322 2.26651 7.30888 2.41251 6.86688 2.58785C6.42555 2.76251 6.00488 2.98318 5.60488 3.24985C5.42155 3.36651 5.22988 3.41651 5.02988 3.39985C4.82988 3.38318 4.66322 3.30818 4.52988 3.17485C4.26322 2.90818 4.14222 2.60418 4.16688 2.26285C4.19222 1.92085 4.35488 1.65818 4.65488 1.47485C5.12155 1.19151 5.60888 0.945512 6.11688 0.736846C6.62555 0.528846 7.14655 0.35818 7.67988 0.224847ZM3.07988 4.59985C3.21322 4.73318 3.29255 4.90385 3.31788 5.11185C3.34255 5.32051 3.29655 5.50818 3.17988 5.67485C2.92988 6.07485 2.71322 6.49585 2.52988 6.93785C2.34655 7.37918 2.20488 7.83318 2.10488 8.29985C2.05488 8.49985 1.94655 8.66651 1.77988 8.79985C1.61322 8.93318 1.42988 8.99985 1.22988 8.99985C0.863217 8.99985 0.575549 8.86651 0.366883 8.59985C0.158883 8.33318 0.0965491 8.03318 0.179883 7.69985C0.313216 7.16651 0.483884 6.64985 0.691884 6.14985C0.90055 5.64985 1.14655 5.16651 1.42988 4.69985C1.61322 4.41651 1.86722 4.26251 2.19188 4.23785C2.51722 4.21251 2.81322 4.33318 3.07988 4.59985ZM1.25488 10.9998C1.43822 10.9998 1.61322 11.0665 1.77988 11.1998C1.94655 11.3332 2.05488 11.4998 2.10488 11.6998C2.20488 12.1665 2.34655 12.6208 2.52988 13.0628C2.71322 13.5042 2.92988 13.9248 3.17988 14.3248C3.29655 14.4915 3.34255 14.6832 3.31788 14.8998C3.29255 15.1165 3.21322 15.2915 3.07988 15.4248C2.82988 15.6915 2.53822 15.8082 2.20488 15.7748C1.87155 15.7415 1.61321 15.5832 1.42988 15.2998C1.12988 14.8332 0.875548 14.3498 0.666882 13.8498C0.458882 13.3498 0.288216 12.8332 0.154883 12.2998C0.0715491 11.9665 0.138217 11.6665 0.354884 11.3998C0.571551 11.1332 0.87155 10.9998 1.25488 10.9998ZM12.1799 0.249847C14.4132 0.78318 16.2549 1.94985 17.7049 3.74985C19.1549 5.54985 19.8799 7.63318 19.8799 9.99985C19.8799 12.3665 19.1549 14.4498 17.7049 16.2498C16.2549 18.0498 14.4049 19.2165 12.1549 19.7498C11.8215 19.8332 11.5299 19.7665 11.2799 19.5498C11.0299 19.3332 10.9049 19.0415 10.9049 18.6748C10.9049 18.4915 10.9755 18.3208 11.1169 18.1628C11.2589 18.0042 11.4215 17.8998 11.6049 17.8498C13.4382 17.4332 14.9422 16.4998 16.1169 15.0498C17.2922 13.5998 17.8799 11.9165 17.8799 9.99985C17.8799 8.08318 17.2922 6.39985 16.1169 4.94985C14.9422 3.49985 13.4466 2.56651 11.6299 2.14985C11.4466 2.09985 11.2839 1.99585 11.1419 1.83785C11.0006 1.67918 10.9299 1.49985 10.9299 1.29985C10.9299 0.933181 11.0549 0.645513 11.3049 0.436847C11.5549 0.228847 11.8466 0.166513 12.1799 0.249847ZM5.55488 16.7248C5.97155 16.9915 6.39655 17.2165 6.82988 17.3998C7.26322 17.5832 7.72155 17.7332 8.20488 17.8498C8.38822 17.8998 8.55055 18.0042 8.69188 18.1628C8.83388 18.3208 8.90488 18.4998 8.90488 18.6998C8.90488 19.0665 8.77988 19.3582 8.52988 19.5748C8.27988 19.7915 7.98822 19.8582 7.65488 19.7748C7.12155 19.6415 6.60088 19.4708 6.09288 19.2628C5.58422 19.0542 5.09655 18.8082 4.62988 18.5248C4.32988 18.3415 4.16322 18.0792 4.12988 17.7378C4.09655 17.3958 4.21322 17.0915 4.47988 16.8248C4.61322 16.6915 4.78388 16.6165 4.99188 16.5998C5.20055 16.5832 5.38822 16.6248 5.55488 16.7248ZM9.92988 5.39985C10.0632 5.39985 10.1882 5.42485 10.3049 5.47485C10.4216 5.52485 10.5299 5.59151 10.6299 5.67485L14.2549 9.32485C14.4382 9.50818 14.5299 9.74151 14.5299 10.0248C14.5299 10.3082 14.4299 10.5498 14.2299 10.7498C14.0466 10.9332 13.8132 11.0248 13.5299 11.0248C13.2466 11.0248 13.0049 10.9332 12.8049 10.7498L10.9299 8.84985L10.9299 13.9748C10.9299 14.2582 10.8339 14.4958 10.6419 14.6878C10.4506 14.8792 10.2132 14.9748 9.92988 14.9748C9.64655 14.9748 9.40888 14.8792 9.21688 14.6878C9.02555 14.4958 8.92988 14.2582 8.92988 13.9748L8.92988 8.84985L7.07988 10.6998C6.87988 10.8998 6.63822 10.9998 6.35488 10.9998C6.07155 10.9998 5.82988 10.8998 5.62988 10.6998C5.42988 10.4998 5.33422 10.2582 5.34288 9.97485C5.35088 9.69151 5.45488 9.44985 5.65488 9.24985L9.22988 5.67485C9.31322 5.59151 9.41722 5.52485 9.54188 5.47485C9.66722 5.42485 9.79655 5.39985 9.92988 5.39985Z" fill="#AAADA7"/>
</svg>
