<svg width="24" height="24" viewBox="0 0 24 24" fill="none" xmlns="http://www.w3.org/2000/svg">
<path d="M18.6755 10.8378C18.6755 12.3879 18.2158 13.9033 17.3546 15.1922C16.4934 16.4811 15.2693 17.4857 13.8371 18.0789C12.405 18.6721 10.8291 18.8273 9.30869 18.5249C7.78832 18.2225 6.39176 17.476 5.29563 16.3799C4.1995 15.2838 3.45303 13.8872 3.1506 12.3668C2.84818 10.8465 3.0034 9.27054 3.59662 7.83838C4.18984 6.40621 5.19442 5.18212 6.48334 4.3209C7.77225 3.45968 9.2876 3 10.8378 3C12.9165 3 14.91 3.82576 16.3799 5.29563C17.8498 6.76549 18.6755 8.75906 18.6755 10.8378Z" stroke="#777B74" stroke-width="1.76992" stroke-linecap="round" stroke-linejoin="round"/>
<path d="M20.6368 20.6364L16.375 16.3746" stroke="#777B74" stroke-width="1.76992" stroke-linecap="round" stroke-linejoin="round"/>
</svg>
